<svg width="27" height="22" viewBox="0 0 27 22" fill="none" xmlns="http://www.w3.org/2000/svg">
<path fill-rule="evenodd" clip-rule="evenodd" d="M23.6871 3.69644C24.1814 7.94359 22.8828 12.2059 20.0119 15.4864C18.3176 17.427 15.4405 18.9273 12.7574 18.9233C9.61848 22.9055 3.84087 21.4926 0.240776 18.7373C-0.422102 18.289 0.423252 17.0003 1.0989 17.5003C3.96193 19.6886 7.89515 20.9623 10.8348 18.632C10.1786 18.4205 9.55896 18.0877 9.0006 17.6146C8.31592 17.034 7.66188 15.8018 7.36312 14.9337C7.06437 14.0657 7.02456 12.6989 7.19434 11.7834C7.49933 10.139 8.9475 8.62625 10.5428 8.50036C12.6656 8.33283 14.1752 10.3853 14.5428 12.0004C14.7389 12.8984 14.7182 14.3756 14.5428 15.2868C14.4244 15.9016 14.0292 16.8008 13.6259 17.556C15.6008 17.2606 17.653 16.0279 18.9044 14.5909C21.6903 11.3987 22.7575 7.12328 22.0903 3.0026C21.1252 4.13909 20.1673 5.25306 19.0004 6.19317C18.5003 7.00027 17.1664 5.67177 18.0005 5.00076C19.1418 4.0827 20.2639 2.73029 21.305 1.47546C21.6918 1.00928 22.0674 0.556574 22.4287 0.14461C22.4814 0.0917093 22.5446 0.0515863 22.6136 0.0272295C22.6826 0.00287456 22.7557 -0.00508481 22.8274 0.00394648C22.8991 0.0129778 22.9676 0.0387651 23.0277 0.0793897C23.0878 0.120012 23.138 0.174423 23.1745 0.238558C23.5073 0.772171 23.9977 1.45721 24.5195 2.18608C25.3976 3.41269 26.3646 4.76345 26.8186 5.72555C27.3186 6.72535 25.9038 7.14448 25.4777 6.31158C25.3184 6.00006 24.6247 5.02054 23.9135 4.01633C23.838 3.90972 23.7623 3.80283 23.6871 3.69644ZM11.9113 17.5523C10.6187 17.3252 9.4907 16.5354 8.82588 14.9337C8.57288 14.3354 8.46266 13.6796 8.50441 13.0211C8.54616 12.3626 8.73868 11.7206 9.06589 11.1485C10.0659 9.53784 11.912 10.0974 12.6656 11.6007C13.6072 13.48 13.2084 15.9098 11.9113 17.5523Z" fill="white"/>
</svg>
