<svg width="42" height="42" viewBox="0 0 42 42" fill="none" xmlns="http://www.w3.org/2000/svg">
<path fill-rule="evenodd" clip-rule="evenodd" d="M31.9817 25.9424C31.4039 21.8761 29.0905 18.2598 25.5024 15.9609C23.3836 14.5999 20.2319 13.9534 17.6412 14.6515C13.6197 11.7713 8.39006 14.5768 5.59723 18.0636C5.06832 18.6508 6.20506 19.627 6.73345 18.9885C8.95521 16.2183 12.4379 14.0192 15.8564 15.4192C15.2751 15.7852 14.7593 16.2542 14.3375 16.8374C13.8204 17.553 13.4948 18.8649 13.4219 19.7471C13.349 20.6294 13.6502 21.9071 14.0417 22.712C14.7448 24.1579 16.5195 25.1859 18.0917 24.8898C20.1839 24.4957 21.132 22.2018 21.0858 20.609C21.0521 19.7255 20.6651 18.361 20.2692 17.5615C20.0021 17.0221 19.3969 16.2905 18.8198 15.6946C20.8008 15.4574 23.0894 16.0693 24.6552 17.078C28.1393 19.317 30.2324 23.0053 30.6117 26.9991C29.3972 26.195 28.1951 25.4099 26.8344 24.8402C26.1508 24.2212 25.1925 25.7984 26.1649 26.2047C27.4953 26.7606 28.9153 27.7243 30.2327 28.6184C30.7222 28.9506 31.1975 29.2732 31.6488 29.5617C31.7128 29.5971 31.7838 29.6179 31.8565 29.6226C31.9293 29.6274 32.0019 29.6158 32.0689 29.5889C32.1359 29.562 32.1956 29.5203 32.2435 29.4671C32.2915 29.4139 32.3265 29.3504 32.3458 29.2815C32.5346 28.7006 32.8381 27.9384 33.1611 27.1275C33.7045 25.7628 34.303 24.26 34.5024 23.2503C34.737 22.1938 33.2662 22.1713 33.0616 23.054C32.9851 23.3841 32.5585 24.4719 32.121 25.5871C32.0746 25.7055 32.028 25.8242 31.9817 25.9424ZM17.1645 16.1418C15.9724 16.687 15.0791 17.7112 14.8349 19.3685C14.7391 19.9889 14.7956 20.6255 14.9996 21.2253C15.2035 21.8251 15.549 22.3706 16.0072 22.8164C17.3733 24.0511 19.0175 23.0545 19.3719 21.4654C19.8145 19.4791 18.8256 17.3292 17.1645 16.1418Z" fill="#1B0B49"/>
</svg>
