<svg width="32" height="28" viewBox="0 0 32 28" fill="none" xmlns="http://www.w3.org/2000/svg">
<path fill-rule="evenodd" clip-rule="evenodd" d="M4.01833 12.7891C6.55188 9.55657 10.3635 7.58146 14.6204 7.38458C17.1358 7.26534 20.1885 8.28128 22.0831 10.1812C27.0058 9.69762 30.1321 14.7421 30.8074 19.1581C30.9718 19.9312 29.4993 20.2082 29.361 19.391C28.822 15.8811 26.9054 12.2353 23.2449 11.7385C23.5653 12.3461 23.7775 13.0101 23.8512 13.7261C23.9412 14.6044 23.5672 15.9033 23.1892 16.7038C22.8112 17.5043 21.9116 18.4603 21.1701 18.9616C19.8382 19.8622 17.7872 19.8651 16.5738 18.8226C14.9589 17.4352 15.2848 14.9746 16.1212 13.6183C16.5921 12.87 17.6095 11.8818 18.3521 11.3873C18.8532 11.0537 19.7431 10.7228 20.5408 10.4953C18.9438 9.29931 16.6559 8.68501 14.7956 8.7756C10.6587 8.97259 7.00182 11.1202 4.67645 14.3893C6.13031 14.3002 7.56387 14.2213 9.02712 14.4083C9.92863 14.214 9.97004 16.0591 8.92473 15.9247C7.49455 15.741 5.78304 15.8656 4.19503 15.9812C3.60508 16.0241 3.03217 16.0658 2.49706 16.09C2.42392 16.0887 2.35199 16.0712 2.28664 16.0389C2.22129 16.0067 2.1642 15.9604 2.11963 15.9035C2.07507 15.8467 2.04417 15.7808 2.02925 15.7107C2.01434 15.6407 2.01578 15.5682 2.03348 15.4989C2.16042 14.9014 2.27866 14.0896 2.40446 13.2258C2.61617 11.7722 2.84931 10.1715 3.18141 9.19742C3.50654 8.16517 4.7915 8.88109 4.5274 9.74779C4.42855 10.0719 4.25414 11.2273 4.07534 12.4118C4.05635 12.5376 4.03732 12.6637 4.01833 12.7891ZM21.7507 11.7103C22.5105 12.7784 22.7721 14.1121 22.1549 15.6695C21.9276 16.2545 21.5604 16.7777 21.0839 17.1951C20.6074 17.6126 20.0354 17.9123 19.4157 18.0692C17.6152 18.4555 16.6897 16.7703 17.1773 15.2169C17.7872 13.2754 19.7185 11.908 21.7507 11.7103Z" fill="white"/>
</svg>
