<svg width="252" height="281" viewBox="0 0 252 281" fill="none" xmlns="http://www.w3.org/2000/svg">
<path d="M97.4275 113.715C95.1861 113.952 93.0628 114.306 90.8215 114.543C75.1324 116.317 59.5612 118.8 44.5799 123.649C40.0973 125.068 35.7327 126.842 31.486 128.852C28.7728 130.153 26.1776 131.808 23.9363 133.819C17.3304 139.613 18.0382 147.773 25.7058 152.149C29.0087 154.041 32.7836 155.223 36.3225 156.642C37.3841 157.115 38.4458 157.352 39.5075 158.18C38.6817 158.416 37.856 158.653 37.0303 158.889C30.1884 160.545 23.2286 162.2 16.7406 165.157C13.5556 166.576 10.4885 168.232 7.53944 170.124C5.76999 171.188 4.23647 172.725 2.93888 174.263C-0.835949 178.875 -0.953924 184.551 2.46701 189.518C4.23646 192.12 6.71369 194.13 9.30889 195.786C13.9095 198.742 18.746 200.871 23.8184 202.645C35.9686 207.02 48.5907 210.095 61.2127 212.815C74.3067 215.535 87.5185 218.018 100.612 220.62C101.438 220.738 102.146 220.974 102.972 221.684C101.91 222.157 100.966 222.512 99.9047 222.985C92.0011 226.178 84.3335 229.844 77.4917 234.929C74.3067 237.294 71.3576 240.014 68.6444 242.852C66.1672 245.454 64.6337 248.883 64.2798 252.549C63.69 257.752 65.5774 262.246 69.1163 266.03C72.0653 269.223 75.7222 271.352 79.615 273.126C86.3389 276.082 93.4167 277.738 100.612 278.802C120.312 281.64 140.13 281.522 159.83 279.63C174.34 278.211 188.613 275.728 202.533 271.47C207.723 269.815 212.914 267.923 217.632 265.203C221.053 263.311 224.12 261.064 226.833 258.107C233.557 250.42 234.265 241.196 228.957 232.682C226.833 229.371 224.238 226.651 221.171 224.167C216.924 220.738 212.442 217.9 207.487 215.653C201.825 213.051 196.045 210.686 190.383 208.203C189.557 207.848 188.731 207.493 187.315 206.902C188.495 206.31 189.085 205.956 189.793 205.601C196.163 202.645 202.533 199.806 208.667 196.613C214.801 193.42 220.463 189.518 225.3 184.433C227.659 181.949 229.782 179.23 231.434 176.391C235.916 168.586 236.152 160.427 232.259 152.149C229.782 146.945 226.125 142.688 221.879 138.786C217.278 134.528 212.088 131.099 206.779 127.906C205.954 127.433 205.01 126.842 203.948 126.132C204.892 125.541 205.6 125.186 206.308 124.831C213.975 121.047 219.991 115.489 224.356 108.039C227.777 102.126 230.49 95.8581 231.67 89.1175C232.849 83.4411 231.434 78.3561 227.895 73.744C223.884 68.5407 218.812 64.6382 212.678 62.3913C208.667 60.854 204.538 59.4349 200.291 58.4888C189.793 56.2419 179.176 54.1133 168.677 52.4577C146.618 48.91 124.441 46.7813 102.146 47.0179C89.5239 47.1361 76.9018 48.0822 64.5157 50.9204C59.2074 52.1029 54.017 53.522 49.2984 56.1237C46.1134 57.8975 42.8105 59.7896 40.2153 62.2731C32.1938 69.4867 32.0758 79.0656 39.7434 86.6341C41.9847 88.881 44.5799 91.0096 47.2931 92.5469C52.7194 95.6216 58.2636 98.5781 63.9259 100.825C74.1887 104.964 84.6874 108.512 94.9502 112.178C95.776 112.532 96.6017 112.769 97.4275 113.124C97.4275 113.36 97.4275 113.478 97.4275 113.715Z" fill="#EAF2D2"/>
<path fill-rule="evenodd" clip-rule="evenodd" d="M169.112 36.8927C186.398 36.8927 208.048 56.6553 214.385 65.065C219.712 72.1355 218.959 108.56 218.959 130.168C218.959 134.687 216.92 143.24 216.18 147.562C213.469 163.402 201.656 176.687 178.275 176.687C159.238 176.687 144.588 170.643 130.42 155.186C127.188 151.66 111.404 164.284 108.175 159.738C99.7435 159.738 92.693 80.7811 109.248 57.0986C125.803 33.4161 151.825 36.8927 169.112 36.8927Z" fill="#FEFFF5"/>
<path fill-rule="evenodd" clip-rule="evenodd" d="M117.157 42.4541C127.146 33.3464 140.453 28.965 153.878 29.2884C160.832 29.4562 167.761 30.7835 174.328 33.0566C177.613 34.1977 180.794 35.6867 183.835 37.3709C184.931 37.9764 185.942 38.686 186.914 39.4395L187.157 39.6287H187.16C189.769 40.5685 192.098 42.2558 194.211 44.2299C198.445 43.8912 202.714 44.2726 206.808 45.5815C212.507 47.4061 217.783 50.7471 221.488 55.4916C225.804 61.0152 227.239 67.7152 226.727 74.6317L226.632 75.8066C226.126 81.9164 225.219 89.7751 220.216 93.7896C219.835 94.0948 219.415 94.3266 218.98 94.467C222.204 100.002 224.849 106.147 226.432 112.353C232.476 136.057 227.83 160.778 220.563 183.625C219.966 185.507 217.126 186.758 215.68 184.918C213.098 181.629 209.347 179.121 205.128 178.651C202.525 178.361 199.934 178.886 197.474 177.702C196.509 177.235 195.578 176.473 194.908 175.545C190.755 177.123 186.283 177.867 181.847 177.684C174.568 177.385 166.787 174.859 161.779 169.318C160.975 168.428 160.771 167.43 160.956 166.53C161.584 166.305 162.229 166.138 162.893 166.033C169.244 169.784 176.244 172.291 183.768 172.448C188.115 172.539 192.355 171.93 195.88 169.209C196.642 168.621 197.344 167.969 197.992 167.268C205.362 162.517 210.558 154.447 213.028 145.803C215.33 137.741 215.046 129.348 214.255 121.079L213.837 116.716C213.229 110.312 212.664 103.888 212.506 97.4571L212.553 97.4547C214.11 97.354 214.121 94.9122 212.553 95.0138C208.499 95.2768 204.474 94.6101 200.432 94.9006C200.398 92.9854 200.261 91.0787 199.699 89.2315C199.378 88.1761 197.545 87.9681 197.351 89.2315C197.091 90.9219 196.996 92.6027 196.967 94.3007C190.918 94.2202 184.874 93.71 178.824 93.9196C177.708 92.7266 177.352 90.6113 176.83 89.1397C176.754 88.9231 176.678 88.7095 176.599 88.4929C176.14 90.5957 175.49 92.6525 174.634 94.6659L173.15 94.671C164.731 94.7105 156.141 94.9628 147.919 96.7151C147.348 96.2754 147.008 95.5083 146.916 94.8118C146.32 90.2791 145.468 85.8669 143.96 81.5473L143.744 80.9379C143.727 80.8873 143.708 80.8336 143.688 80.7771C142.577 82.5751 141.251 84.2511 139.804 85.8118C138.952 86.7317 138.058 87.6114 137.141 88.466C136.25 89.4576 135.329 90.4343 134.436 91.429C134.471 91.6099 134.502 91.7936 134.526 91.9806C134.799 94.0447 134.828 96.1381 134.628 98.2101C134.266 101.956 133.211 105.566 131.516 108.905L131.462 109.239C131.205 110.804 130.838 112.421 129.983 113.6C131.051 114.798 131.873 116.23 132.35 117.82C132.774 119.236 130.819 120.463 129.805 119.305C129 118.384 128.105 117.622 127.123 117.014C127.061 117.099 126.949 117.14 126.823 117.07C124.086 115.547 119.437 116.008 116.703 117.442C113.303 119.224 111.975 122.882 112.353 126.589C112.715 130.132 114.262 134.272 117.26 136.088C118.636 136.921 119.708 136.991 121.169 136.591C121.637 136.464 122.216 136.074 122.465 135.88L122.709 135.684C123.667 134.925 124.559 134.405 125.69 134.385C126.847 134.024 128.009 134.525 128.452 135.741L128.479 135.819C128.686 136.439 129.064 137.217 128.981 138.162C128.896 139.175 128.433 140.097 127.742 140.838C127.624 140.966 127.496 141.095 127.365 141.214C139.268 154.129 140.797 174.254 134.693 190.389C134.428 191.097 134.145 191.796 133.849 192.488C132.829 194.862 128.902 194.127 128.403 191.774C128.254 191.069 128.089 190.368 127.91 189.672C127.58 188.386 127.201 187.113 126.775 185.858L126.613 185.388C126.25 184.351 125.913 183.304 125.547 182.267L125.511 182.148C125.497 182.101 125.482 182.047 125.465 181.986L124.847 183.338L122.969 187.417C122.09 189.321 119.297 188.286 119.193 186.452L119.191 186.389C119.181 186.05 119.169 185.715 119.148 185.382C119.014 182.889 118.585 180.467 117.903 178.096L117.657 178.402C113.993 182.942 109.693 187.197 103.795 188.244C102.315 188.506 100.641 186.956 101.658 185.458C102.078 184.839 102.483 184.204 102.866 183.56C102.535 183.405 102.221 183.243 101.932 183.078C99.6942 181.818 97.831 180.024 96.2906 177.989C93.0239 173.675 91.8549 168.244 91.5687 162.929C91.2643 157.311 91.7575 151.389 93.2888 145.97C93.9525 143.627 94.8506 141.378 95.8887 139.197C95.8156 139.002 95.7456 138.806 95.6756 138.611C94.5553 135.481 93.6359 132.28 92.8717 129.043C91.3312 122.507 90.5032 115.764 90.4027 109.048C90.22 97.0178 92.2902 84.7949 96.6529 73.5758C101.159 62.0058 107.935 50.86 117.157 42.4541ZM111.546 147.639C110.719 146.334 108.649 147.51 109.417 148.825L109.445 148.872C110.758 150.944 111.373 153.299 112.128 155.609C112.612 157.095 114.965 156.46 114.475 154.959L114.312 154.458C113.561 152.116 112.876 149.735 111.546 147.639ZM118.752 122.718L119.302 122.451C121.036 121.622 122.555 121.057 124.603 121.781C127.346 122.748 130.284 125.827 128.43 128.814C127.748 129.915 126.537 130.355 125.288 130.095C123.184 129.658 122.641 127.759 121.573 126.2L121.39 125.936C120.738 124.992 119.915 123.688 118.831 123.319C118.585 123.233 118.481 122.849 118.752 122.718ZM120.298 59.2968L120.475 59.1378C121.653 58.0943 119.924 56.3734 118.752 57.4108C113.388 62.1615 111.525 69.5971 108.742 75.9343C108.118 77.3592 110.216 78.6041 110.846 77.167C113.5 71.1198 115.262 63.8859 120.298 59.2968ZM184.761 57.2186C183.359 56.5856 182.133 58.6298 183.48 59.3029L183.531 59.3269C188.268 61.4719 190.283 66.3293 192.213 70.8389C192.828 72.2791 194.926 71.0372 194.317 69.6093L193.969 68.8001C191.955 64.1528 189.606 59.4158 184.761 57.2186ZM192.186 54.2834C190.7 53.7678 190.064 56.1232 191.538 56.6389C195.553 58.0394 198.308 61.06 200.631 64.5139C201.502 65.8076 203.612 64.5871 202.732 63.2812C200.035 59.272 196.832 55.9066 192.186 54.2834Z" fill="#1A0B45"/>
<path fill-rule="evenodd" clip-rule="evenodd" d="M182.953 156.553C180.711 157.204 178.303 157.262 176.017 156.59C173.944 155.98 171.815 154.638 170.289 152.862C168.933 151.284 168.055 149.367 168.09 147.321C168.094 147.087 168.177 146.892 168.305 146.74C168.443 146.577 168.636 146.465 168.843 146.417C169.055 146.367 169.28 146.385 169.471 146.472C169.645 146.551 169.793 146.684 169.886 146.88C170.12 147.189 170.354 147.493 170.588 147.789C172.474 150.122 174.3 151.866 177.136 152.492C178.674 152.831 180.211 152.681 181.62 152.163C183.13 151.609 184.494 150.634 185.563 149.386C186.046 148.823 186.616 148.593 187.174 148.589C187.806 148.584 188.431 148.879 188.901 149.349C189.364 149.812 189.674 150.44 189.702 151.097C189.727 151.674 189.539 152.277 189.039 152.814C187.394 154.586 185.261 155.883 182.953 156.553ZM182.884 127.325C185.183 128.726 188.686 131.991 186.213 135.463C183.302 138.525 179.11 135.015 177.045 133.427C175.13 132.197 172.978 135.361 174.755 136.798C189.68 147.872 195.737 127.692 184.047 125.679C182.76 125.457 182.282 126.892 182.884 127.325ZM161.379 121.163C160.64 120.689 159.771 120.527 158.807 120.966C158.055 121.309 156.734 122.453 155.815 123.956C155.187 124.985 154.741 126.192 154.834 127.449C154.855 127.74 154.748 127.956 154.578 128.115C154.444 128.24 154.25 128.333 154.023 128.362C153.83 128.386 153.614 128.364 153.438 128.309C153.104 128.205 152.927 127.987 152.86 127.81C152.217 126.097 152.494 124.187 153.215 122.463C154.188 120.136 155.955 118.187 157.113 117.559C159.094 116.483 161.431 116.434 163.415 117.53C165.104 118.462 166.16 119.968 167.21 121.503C167.434 121.829 167.655 122.153 167.884 122.471C168.343 123.108 168.389 123.741 168.211 124.283C168.014 124.883 167.512 125.39 166.884 125.656C166.304 125.901 165.631 125.935 165.035 125.683C164.531 125.471 164.069 125.056 163.777 124.352C163.284 123.166 162.464 121.858 161.379 121.163V121.163ZM198.906 123.8C198.4 124.065 198.004 124.144 197.442 123.976C197.132 123.882 196.825 123.703 196.585 123.462C196.347 123.224 196.175 122.927 196.108 122.598C195.944 121.786 195.501 121.025 194.869 120.53C194.329 120.106 193.647 119.881 192.891 120.008C192.075 120.145 191.297 120.669 190.762 121.288C190.583 121.494 190.442 121.73 190.301 121.963C190.038 122.399 189.781 122.805 189.417 123.126C189.279 123.248 189.072 123.332 188.87 123.332C188.788 123.332 188.705 123.319 188.626 123.294C187.814 122.477 187.658 121.857 187.684 121.243C187.712 120.598 187.965 119.945 188.375 119.336C189.336 117.908 191.161 116.737 192.393 116.471C194.08 116.108 195.755 116.544 197.098 117.488C198.48 118.46 199.504 119.968 199.823 121.668C199.9 122.077 199.867 122.519 199.712 122.902C199.56 123.277 199.295 123.597 198.906 123.8ZM165.099 105.932C164.087 106.921 162.888 107.074 161.676 107.21C161.003 107.286 160.465 107.348 159.936 107.468C158.482 107.797 157.045 108.292 155.734 109.006C154.363 109.752 152.869 110.651 151.794 111.804C151.539 112.078 151.298 112.366 151.056 112.654C150.837 112.917 150.625 113.17 150.401 113.414C150.145 113.695 149.901 113.988 149.659 114.282C149.509 114.529 149.48 114.59 149.449 114.653C149.404 114.748 149.351 114.855 149.291 114.969C149.208 115.125 149.112 115.297 149.01 115.452C148.842 115.736 148.751 115.814 148.673 115.849C148.543 115.907 148.42 115.935 148.301 115.92C148.189 115.905 148.084 115.851 147.98 115.763C147.46 115.323 147.307 114.601 147.322 113.834C147.346 112.671 147.774 111.383 148.169 110.591C149.087 108.752 150.359 106.839 151.89 105.466C153.636 103.899 155.547 102.712 157.741 101.894C159.105 101.386 160.684 100.919 162.169 100.978C163.239 101.021 164.26 101.339 165.103 102.135C165.62 102.623 165.869 103.318 165.869 104.012C165.869 104.72 165.611 105.433 165.099 105.932ZM200.964 114.984C200.9 115.089 200.811 115.162 200.712 115.206C200.608 115.252 200.492 115.265 200.381 115.246C200.27 115.228 200.164 115.177 200.081 115.1C200.001 115.026 199.94 114.929 199.912 114.809C199.24 111.85 197.935 109.65 195.15 108.23C193.78 107.532 192.204 107.088 190.713 106.735C190.28 106.632 189.822 106.565 189.36 106.498C187.915 106.286 186.459 106.044 185.517 104.873C184.949 104.168 184.711 103.266 184.845 102.441C184.972 101.664 185.425 100.952 186.248 100.525C188.298 99.4628 190.845 100.505 192.915 101.393C193.069 101.459 193.219 101.523 193.367 101.586C195.391 102.442 197.237 103.572 198.754 105.189C199.959 106.471 201.074 108.367 201.523 110.317C201.897 111.939 201.809 113.596 200.964 114.984Z" fill="#1A0B45"/>
<path d="M117.292 254.054C118.577 253.831 119.847 253.551 121.119 253.393C123.02 253.186 124.676 253.774 125.971 255.186C126.837 256.137 127.654 257.132 128.4 258.206C130.368 260.985 131.917 264.028 133.614 266.94C133.842 267.334 133.999 267.807 134.198 268.209C134.272 268.371 134.354 268.561 134.478 268.68C134.791 269.051 135.222 269.178 135.635 269.007C136.048 268.836 136.299 268.404 136.198 267.916C136.159 267.653 136.083 267.37 135.95 267.102C135.491 266.073 135.267 265.01 135.101 263.933C134.775 261.806 134.536 259.656 134.661 257.499C134.858 254.928 135.56 252.526 137.095 250.386C137.874 249.297 138.688 248.23 139.495 247.134C140.73 245.469 142.307 244.166 143.963 242.934C144.218 242.744 144.553 242.624 144.865 242.419C145.078 242.302 145.319 242.176 145.517 242.002C145.941 241.646 146.012 241.111 145.769 240.66C145.534 240.238 145.03 240.07 144.532 240.264C144.169 240.392 143.792 240.583 143.452 240.796C141.516 242.012 139.31 242.452 137.09 242.834C136.276 242.992 135.454 243.121 134.639 243.157C132.728 243.214 131.065 242.598 129.791 241.15C128.786 240.024 127.966 238.788 127.265 237.429C126.153 235.33 124.848 233.314 123.949 231.098C123.495 229.976 123.013 228.862 122.552 227.711C122.412 227.415 122.3 227.111 122.131 226.823C121.876 226.558 121.552 226.372 121.173 226.443C120.795 226.514 120.506 226.804 120.498 227.23C120.469 227.693 120.476 228.176 120.569 228.637C120.987 230.769 121.406 232.902 121.832 235.063C122.205 237.025 122.635 238.973 122.944 240.922C123.19 242.525 123.042 244.141 122.514 245.709C122.042 247.139 121.134 248.202 119.966 249.091C119.202 249.66 118.473 250.249 117.694 250.761C117.283 251.054 116.785 251.248 116.33 251.491C115.45 251.969 114.533 252.427 113.66 252.934C113.263 253.162 113.061 253.55 113.154 254.01C113.21 254.45 113.581 254.806 114.082 254.853C114.427 254.882 114.792 254.876 115.134 254.784C115.883 254.614 116.645 254.379 117.387 254.18C117.315 254.139 117.3 254.082 117.292 254.054Z" fill="#1A0B45"/>
<path fill-rule="evenodd" clip-rule="evenodd" d="M237.68 5.224C237.727 4.33778 237.82 3.45157 237.914 2.56536C237.899 2.35856 237.889 2.15643 237.879 1.95899C237.858 1.53298 237.837 1.12874 237.774 0.746285C237.727 0.466428 237.447 0 237.261 0C236.981 0 236.514 0.233214 236.374 0.466428C236.001 1.07279 235.628 1.77243 235.442 2.47207C234.835 4.66428 234.322 6.8565 233.856 9.09535C233.576 10.4014 233.529 11.7074 233.996 12.9667C234.276 13.6664 234.695 14.2261 235.535 14.2261C236.374 14.2261 236.841 13.6664 237.074 12.9667C237.307 12.3137 237.401 11.6141 237.447 10.9144C237.494 9.95822 237.529 9.01369 237.564 8.06915C237.599 7.12465 237.634 6.18016 237.68 5.224ZM231.384 36.3814C231.477 36.8012 231.617 37.2676 232.27 37.3609C232.317 37.118 232.365 36.8733 232.414 36.6266L232.414 36.6263C232.61 35.6416 232.811 34.6271 232.923 33.5828C233.343 30.551 233.669 27.5192 233.996 24.4875C234.042 24.0677 233.996 23.6012 233.902 23.1815C233.623 22.2486 232.876 21.7355 232.083 21.8755C231.29 22.0154 230.917 22.6217 230.917 23.6479C230.964 24.8606 230.964 26.12 230.964 27.3327C230.964 27.9874 230.959 28.6421 230.953 29.2951V29.2952V29.2952C230.943 30.596 230.933 31.8899 230.964 33.163C230.964 34.057 231.126 34.951 231.288 35.845C231.32 36.0238 231.353 36.2026 231.384 36.3814ZM252 19.4967C251.774 19.547 251.544 19.604 251.313 19.6614C250.686 19.8171 250.048 19.9757 249.435 20.0098L248.987 20.0516L248.986 20.0516C245.641 20.364 242.335 20.6728 238.987 20.896C238.427 20.9427 237.774 20.8027 237.261 20.5695C236.561 20.2897 236.608 19.5434 237.261 19.2169C237.634 19.0303 238.054 18.937 238.427 18.937C242.858 18.7971 247.289 18.7504 251.72 19.1236C251.813 19.1236 251.907 19.1702 252 19.2169V19.4967ZM228.912 16.8692C229.456 16.8225 230 16.7759 230.544 16.7448C230.544 16.6515 230.544 16.5582 230.591 16.4183C230.404 16.395 230.229 16.36 230.055 16.325C229.88 16.29 229.705 16.255 229.518 16.2317C227.862 16.0451 226.218 15.8585 224.574 15.6719C222.93 15.4854 221.286 15.2988 219.63 15.1123C219.35 15.089 219.07 15.054 218.79 15.019C218.51 14.984 218.231 14.949 217.951 14.9257C217.484 14.9257 217.111 15.1123 217.018 15.5787C216.925 16.0918 217.204 16.4649 217.671 16.6048C217.997 16.6981 218.371 16.7914 218.744 16.7914C219.302 16.8142 219.863 16.8398 220.425 16.8654C222.165 16.9447 223.919 17.0246 225.647 17.0246C226.735 17.0557 227.823 16.9624 228.912 16.8692Z" fill="black"/>
<path d="M54.7545 191.954C55.1398 193.624 55.5252 194.973 55.8463 196.386C55.9106 196.707 56.039 197.092 56.1033 197.413C56.2317 197.991 56.1033 198.569 55.5252 198.891C54.9472 199.212 54.4333 198.955 54.048 198.505C52.8919 197.156 51.7358 195.743 50.5797 194.395C50.3228 194.074 50.0659 193.817 49.6163 193.367C49.2309 194.716 48.8455 195.872 48.4602 197.028C48.139 197.991 47.8821 199.019 47.4325 199.918C47.3041 200.304 46.7902 200.689 46.4691 200.753C45.8268 200.817 45.6341 200.239 45.5699 199.726C45.4415 198.313 45.3772 196.835 45.2488 195.422C45.1846 194.523 45.1203 193.624 44.9919 192.468C44.3496 192.725 43.9 192.853 43.4504 193.046C42.1016 193.56 40.7528 194.138 39.4683 194.652C39.0187 194.844 38.5691 194.973 38.1195 195.037C37.413 195.165 36.6423 195.165 36.1927 194.459C35.8073 193.881 36 193.11 36.7707 192.404C38.0553 191.248 39.3398 190.22 40.6886 189.128C41.074 188.807 41.4593 188.486 41.9089 188.1C40.5602 187.458 39.2114 186.816 37.9911 186.174C36.7065 185.531 36.3211 184.889 36.578 184.118C36.835 183.348 37.5415 182.962 38.8902 183.091C40.3675 183.219 41.8447 183.412 43.322 183.54C43.9642 183.604 44.6065 183.54 45.4415 183.54C45.313 182.577 45.313 181.806 45.1846 181.035C44.9276 179.751 44.6065 178.53 44.3496 177.246C44.2854 176.796 44.2211 176.347 44.2211 175.897C44.2854 175.255 44.5423 174.677 45.2488 174.484C45.8911 174.291 46.4049 174.548 46.726 175.062C47.6894 176.282 48.4602 177.503 49.2951 178.659C49.6163 179.173 49.9374 179.687 50.5797 180.136C50.8366 178.723 51.0293 177.374 51.2862 175.961C51.4146 175.383 51.4789 174.741 51.6715 174.163C51.9285 173.328 52.4423 172.943 53.0846 173.007C53.7911 173.135 54.1122 173.649 54.2406 174.291C54.4333 175.897 54.5618 177.439 54.6902 179.044C54.7545 179.43 54.7545 179.879 54.7545 180.457C55.2683 180.265 55.6537 180.072 56.039 179.879C57.0024 179.365 57.9659 178.852 58.9293 178.402C60.0854 177.824 60.7276 177.824 61.1772 178.466C61.5626 179.044 61.4341 179.687 60.5992 180.65C59.8285 181.549 59.0577 182.448 58.287 183.348C57.7089 183.99 57.1951 184.696 56.5528 185.467C56.8098 185.788 57.0667 186.109 57.3878 186.366C58.8008 187.908 60.278 189.449 61.6911 190.991C62.1406 191.504 62.3976 192.018 62.0122 192.661C61.6268 193.303 61.0488 193.303 60.4065 193.174C58.6081 192.789 56.8098 192.404 54.7545 191.954Z" fill="#1A0B45"/>
<path fill-rule="evenodd" clip-rule="evenodd" d="M237.68 5.224C237.727 4.33778 237.82 3.45157 237.914 2.56536C237.899 2.35856 237.889 2.15643 237.879 1.95899C237.858 1.53298 237.837 1.12874 237.774 0.746285C237.727 0.466428 237.447 0 237.261 0C236.981 0 236.514 0.233214 236.374 0.466428C236.001 1.07279 235.628 1.77243 235.442 2.47207C234.835 4.66428 234.322 6.8565 233.856 9.09535C233.576 10.4014 233.529 11.7074 233.996 12.9667C234.276 13.6664 234.695 14.2261 235.535 14.2261C236.374 14.2261 236.841 13.6664 237.074 12.9667C237.307 12.3137 237.401 11.6141 237.447 10.9144C237.494 9.95822 237.529 9.01369 237.564 8.06915C237.599 7.12465 237.634 6.18016 237.68 5.224ZM231.384 36.3814C231.477 36.8012 231.617 37.2676 232.27 37.3609C232.317 37.118 232.365 36.8733 232.414 36.6266L232.414 36.6263C232.61 35.6416 232.811 34.6271 232.923 33.5828C233.343 30.551 233.669 27.5192 233.996 24.4875C234.042 24.0677 233.996 23.6012 233.902 23.1815C233.623 22.2486 232.876 21.7355 232.083 21.8755C231.29 22.0154 230.917 22.6217 230.917 23.6479C230.964 24.8606 230.964 26.12 230.964 27.3327C230.964 27.9874 230.959 28.6421 230.953 29.2951V29.2952V29.2952C230.943 30.596 230.933 31.8899 230.964 33.163C230.964 34.057 231.126 34.951 231.288 35.845C231.32 36.0238 231.353 36.2026 231.384 36.3814ZM252 19.4967C251.774 19.547 251.544 19.604 251.313 19.6614C250.686 19.8171 250.048 19.9757 249.435 20.0098L248.987 20.0516L248.986 20.0516C245.641 20.364 242.335 20.6728 238.987 20.896C238.427 20.9427 237.774 20.8027 237.261 20.5695C236.561 20.2897 236.608 19.5434 237.261 19.2169C237.634 19.0303 238.054 18.937 238.427 18.937C242.858 18.7971 247.289 18.7504 251.72 19.1236C251.813 19.1236 251.907 19.1702 252 19.2169V19.4967ZM228.912 16.8692C229.456 16.8225 230 16.7759 230.544 16.7448C230.544 16.6515 230.544 16.5582 230.591 16.4183C230.404 16.395 230.229 16.36 230.055 16.325C229.88 16.29 229.705 16.255 229.518 16.2317C227.862 16.0451 226.218 15.8585 224.574 15.6719C222.93 15.4854 221.286 15.2988 219.63 15.1123C219.35 15.089 219.07 15.054 218.79 15.019C218.51 14.984 218.231 14.949 217.951 14.9257C217.484 14.9257 217.111 15.1123 217.018 15.5787C216.925 16.0918 217.204 16.4649 217.671 16.6048C217.997 16.6981 218.371 16.7914 218.744 16.7914C219.302 16.8142 219.863 16.8398 220.425 16.8654C222.165 16.9447 223.919 17.0246 225.647 17.0246C226.735 17.0557 227.823 16.9624 228.912 16.8692Z" fill="black"/>
</svg>
