<svg width="240" height="240" viewBox="0 0 240 240" fill="none" xmlns="http://www.w3.org/2000/svg">
<path d="M97.5916 87.4151C95.6916 87.6151 93.8916 87.9151 91.9916 88.1151C78.6916 89.6151 65.4916 91.7151 52.7916 95.8151C48.9916 97.0151 45.2917 98.5151 41.6917 100.215C39.3917 101.315 37.1916 102.715 35.2916 104.415C29.6916 109.315 30.2916 116.215 36.7916 119.915C39.5916 121.515 42.7916 122.515 45.7916 123.715C46.6916 124.115 47.5917 124.315 48.4917 125.015C47.7917 125.215 47.0916 125.415 46.3916 125.615C40.5916 127.015 34.6917 128.415 29.1917 130.915C26.4917 132.115 23.8916 133.515 21.3916 135.115C19.8916 136.015 18.5917 137.315 17.4917 138.615C14.2917 142.515 14.1916 147.315 17.0916 151.515C18.5916 153.715 20.6916 155.415 22.8916 156.815C26.7916 159.315 30.8917 161.115 35.1917 162.615C45.4917 166.315 56.1916 168.915 66.8916 171.215C77.9916 173.515 89.1916 175.615 100.292 177.815C100.992 177.915 101.592 178.115 102.292 178.715C101.392 179.115 100.592 179.415 99.6917 179.815C92.9917 182.515 86.4917 185.615 80.6917 189.915C77.9917 191.915 75.4917 194.215 73.1917 196.615C71.0917 198.815 69.7917 201.715 69.4917 204.815C68.9917 209.215 70.5916 213.015 73.5916 216.215C76.0916 218.915 79.1917 220.715 82.4917 222.215C88.1917 224.715 94.1916 226.115 100.292 227.015C116.992 229.415 133.792 229.315 150.492 227.715C162.792 226.515 174.892 224.415 186.692 220.815C191.092 219.415 195.492 217.815 199.492 215.515C202.392 213.915 204.992 212.015 207.292 209.515C212.992 203.015 213.592 195.215 209.092 188.015C207.292 185.215 205.092 182.915 202.492 180.815C198.892 177.915 195.092 175.515 190.892 173.615C186.092 171.415 181.192 169.415 176.392 167.315C175.692 167.015 174.992 166.715 173.792 166.215C174.792 165.715 175.292 165.415 175.892 165.115C181.292 162.615 186.692 160.215 191.892 157.515C197.092 154.815 201.892 151.515 205.992 147.215C207.992 145.115 209.792 142.815 211.192 140.415C214.992 133.815 215.192 126.915 211.892 119.915C209.792 115.515 206.692 111.915 203.092 108.615C199.192 105.015 194.792 102.115 190.292 99.4151C189.592 99.0151 188.792 98.5151 187.892 97.9151C188.692 97.4151 189.292 97.1151 189.892 96.8151C196.392 93.6151 201.492 88.9151 205.192 82.6151C208.092 77.6151 210.392 72.3151 211.392 66.6151C212.392 61.8151 211.192 57.5151 208.192 53.6151C204.792 49.2151 200.492 45.9151 195.292 44.0151C191.892 42.7151 188.392 41.5151 184.792 40.7151C175.892 38.8151 166.892 37.0151 157.992 35.6151C139.292 32.6151 120.492 30.8151 101.592 31.0151C90.8916 31.1151 80.1917 31.9151 69.6917 34.3151C65.1917 35.3151 60.7916 36.5151 56.7916 38.7151C54.0916 40.2151 51.2916 41.8151 49.0916 43.9151C42.2916 50.0151 42.1917 58.1151 48.6917 64.5151C50.5917 66.4151 52.7916 68.2151 55.0916 69.5151C59.6916 72.1151 64.3917 74.6151 69.1917 76.5151C77.8917 80.0151 86.7916 83.0151 95.4916 86.1151C96.1916 86.4151 96.8916 86.6151 97.5916 86.9151C97.5916 87.1151 97.5916 87.2151 97.5916 87.4151Z" fill="#F0EBFA"/>
<path fill-rule="evenodd" clip-rule="evenodd" d="M148.112 20.8927C165.398 20.8927 187.048 40.6553 193.385 49.065C198.712 56.1355 197.959 92.5604 197.959 114.168C197.959 118.687 195.92 127.24 195.18 131.562C192.469 147.402 180.656 160.687 157.275 160.687C138.238 160.687 123.588 154.643 109.42 139.186C106.188 135.66 90.4036 148.284 87.1754 143.738C78.7435 143.738 71.693 64.7811 88.248 41.0986C104.803 17.4161 130.825 20.8927 148.112 20.8927Z" fill="#FEFFF5"/>
<path fill-rule="evenodd" clip-rule="evenodd" d="M96.1569 26.4541C106.146 17.3464 119.453 12.965 132.878 13.2884C139.832 13.4562 146.761 14.7835 153.328 17.0566C156.613 18.1977 159.794 19.6867 162.835 21.3709C163.931 21.9764 164.942 22.686 165.914 23.4395L166.157 23.6287H166.16C168.769 24.5685 171.098 26.2558 173.211 28.2299C177.445 27.8912 181.714 28.2726 185.808 29.5815C191.507 31.4061 196.783 34.7471 200.488 39.4916C204.804 45.0152 206.239 51.7152 205.727 58.6317L205.632 59.8066C205.126 65.9164 204.219 73.7751 199.216 77.7896C198.835 78.0948 198.415 78.3266 197.98 78.467C201.204 84.0018 203.849 90.1468 205.432 96.3528C211.476 120.057 206.83 144.778 199.563 167.625C198.966 169.507 196.126 170.758 194.68 168.918C192.098 165.629 188.347 163.121 184.128 162.651C181.525 162.361 178.934 162.886 176.474 161.702C175.509 161.235 174.578 160.473 173.908 159.545C169.755 161.123 165.283 161.867 160.847 161.684C153.568 161.385 145.787 158.859 140.779 153.318C139.975 152.428 139.771 151.43 139.956 150.53C140.584 150.305 141.229 150.138 141.893 150.033C148.244 153.784 155.244 156.291 162.768 156.448C167.115 156.539 171.355 155.93 174.88 153.209C175.642 152.621 176.344 151.969 176.992 151.268C184.362 146.517 189.558 138.447 192.028 129.803C194.33 121.741 194.046 113.348 193.255 105.079L192.837 100.716C192.229 94.3117 191.664 87.8885 191.506 81.4571L191.553 81.4547V81.4547C193.11 81.354 193.121 78.9122 191.553 79.0138C187.499 79.2768 183.474 78.6101 179.432 78.9006C179.398 76.9854 179.261 75.0787 178.699 73.2315C178.378 72.1761 176.545 71.9681 176.351 73.2315C176.091 74.9219 175.996 76.6027 175.967 78.3007C169.918 78.2202 163.874 77.71 157.824 77.9196C156.708 76.7266 156.352 74.6113 155.83 73.1397C155.754 72.9231 155.678 72.7095 155.599 72.4929C155.14 74.5957 154.49 76.6525 153.634 78.6659L152.15 78.671C143.731 78.7106 135.141 78.9628 126.919 80.7151C126.348 80.2754 126.008 79.5083 125.916 78.8118C125.32 74.2791 124.468 69.8669 122.96 65.5473L122.744 64.9379C122.727 64.8873 122.708 64.8336 122.688 64.7771C121.577 66.5751 120.251 68.2511 118.804 69.8118C117.952 70.7317 117.058 71.6114 116.141 72.466C115.25 73.4576 114.329 74.4343 113.436 75.429C113.471 75.6099 113.502 75.7936 113.526 75.9806C113.799 78.0447 113.828 80.1381 113.628 82.2101C113.266 85.956 112.211 89.5655 110.516 92.9047L110.462 93.2391C110.205 94.8039 109.838 96.4211 108.983 97.5995C110.051 98.798 110.873 100.23 111.35 101.82C111.774 103.236 109.819 104.463 108.805 103.305C108 102.384 107.105 101.622 106.123 101.014C106.061 101.099 105.949 101.14 105.823 101.07C103.086 99.5474 98.4371 100.008 95.7033 101.442C92.3027 103.224 90.9753 106.882 91.3528 110.589C91.7151 114.132 93.2617 118.272 96.2604 120.088C97.6364 120.921 98.7081 120.991 100.169 120.591C100.637 120.464 101.216 120.074 101.465 119.88L101.709 119.684C102.667 118.925 103.559 118.405 104.69 118.385C105.847 118.024 107.009 118.525 107.452 119.741L107.479 119.819C107.686 120.439 108.064 121.217 107.981 122.162C107.896 123.175 107.433 124.097 106.742 124.838C106.624 124.966 106.496 125.095 106.365 125.214C118.268 138.129 119.797 158.254 113.693 174.389C113.428 175.097 113.145 175.796 112.849 176.488C111.829 178.862 107.902 178.127 107.403 175.774C107.254 175.069 107.089 174.368 106.91 173.672C106.58 172.386 106.201 171.113 105.775 169.858L105.613 169.388C105.25 168.351 104.913 167.304 104.547 166.267L104.511 166.148C104.497 166.101 104.482 166.047 104.465 165.986L103.847 167.338V167.338L101.969 171.417C101.09 173.321 98.2969 172.286 98.193 170.452L98.1905 170.389C98.1814 170.05 98.1692 169.715 98.1479 169.382C98.014 166.889 97.5847 164.467 96.9027 162.096L96.6567 162.402C92.9931 166.942 88.6934 171.197 82.795 172.244C81.3154 172.506 79.641 170.956 80.6578 169.458C81.078 168.839 81.4829 168.204 81.8665 167.56C81.5346 167.405 81.2211 167.243 80.9318 167.078C78.6942 165.818 76.831 164.024 75.2906 161.989C72.0239 157.675 70.8549 152.244 70.5687 146.929C70.2643 141.311 70.7575 135.389 72.2888 129.97C72.9525 127.627 73.8506 125.378 74.8887 123.197C74.8156 123.002 74.7456 122.806 74.6756 122.611C73.5553 119.481 72.6359 116.28 71.8717 113.043C70.3312 106.507 69.5032 99.764 69.4027 93.0484C69.22 81.0178 71.2902 68.7949 75.6529 57.5758C80.1586 46.0058 86.9354 34.86 96.1569 26.4541ZM90.546 131.639C89.7187 130.334 87.6485 131.51 88.4168 132.825L88.4454 132.872C89.7575 134.944 90.3725 137.299 91.1275 139.609C91.6116 141.095 93.9649 140.46 93.4748 138.959L93.3125 138.458C92.5612 136.116 91.8758 133.735 90.546 131.639ZM97.7521 106.718L98.3018 106.451C100.036 105.622 101.555 105.057 103.603 105.781C106.346 106.748 109.284 109.827 107.43 112.814C106.748 113.915 105.537 114.355 104.288 114.095C102.184 113.658 101.641 111.759 100.573 110.2L100.39 109.936C99.7385 108.992 98.9152 107.688 97.8313 107.319C97.5847 107.233 97.4812 106.849 97.7521 106.718ZM99.2982 43.2968L99.4753 43.1378C100.653 42.0943 98.9242 40.3734 97.7521 41.4108C92.3879 46.1615 90.5247 53.5971 87.7422 59.9343C87.1181 61.3592 89.2156 62.6041 89.8458 61.167C92.5001 55.1198 94.262 47.8859 99.2982 43.2968V43.2968ZM163.761 41.2186C162.359 40.5856 161.133 42.6298 162.48 43.3029L162.531 43.3269C167.268 45.4719 169.283 50.3293 171.213 54.8389C171.828 56.2791 173.926 55.0372 173.317 53.6093L172.969 52.8001C170.955 48.1528 168.606 43.4158 163.761 41.2186ZM171.186 38.2834C169.7 37.7678 169.064 40.1232 170.538 40.6389C174.553 42.0394 177.308 45.06 179.631 48.5139C180.502 49.8076 182.612 48.5871 181.732 47.2812C179.035 43.272 175.832 39.9066 171.186 38.2834Z" fill="#1A0B45"/>
<path fill-rule="evenodd" clip-rule="evenodd" d="M161.953 140.553C159.711 141.204 157.303 141.262 155.017 140.59C152.944 139.98 150.815 138.638 149.289 136.862C147.933 135.284 147.055 133.367 147.09 131.321C147.094 131.087 147.177 130.892 147.305 130.74C147.443 130.577 147.636 130.465 147.843 130.417C148.055 130.367 148.28 130.385 148.471 130.472C148.645 130.551 148.793 130.684 148.886 130.88C149.12 131.189 149.354 131.493 149.588 131.789C151.474 134.122 153.3 135.866 156.136 136.492C157.674 136.831 159.211 136.681 160.62 136.163C162.13 135.609 163.494 134.634 164.563 133.386C165.046 132.823 165.616 132.593 166.174 132.589C166.806 132.584 167.431 132.879 167.901 133.349C168.364 133.812 168.674 134.44 168.702 135.097C168.727 135.674 168.539 136.277 168.039 136.814C166.394 138.586 164.261 139.883 161.953 140.553ZM161.884 111.325C164.183 112.726 167.686 115.991 165.213 119.463C162.302 122.525 158.11 119.015 156.045 117.427C154.13 116.197 151.978 119.361 153.755 120.798C168.68 131.872 174.737 111.692 163.047 109.679C161.76 109.457 161.282 110.892 161.884 111.325ZM140.379 105.163C139.64 104.689 138.771 104.527 137.807 104.966C137.055 105.309 135.734 106.453 134.815 107.956C134.187 108.985 133.741 110.192 133.834 111.449C133.855 111.74 133.748 111.956 133.578 112.115C133.444 112.24 133.25 112.333 133.023 112.362C132.83 112.386 132.614 112.364 132.438 112.309C132.104 112.205 131.927 111.987 131.86 111.81C131.217 110.097 131.494 108.187 132.215 106.463C133.188 104.136 134.955 102.187 136.113 101.559C138.094 100.483 140.431 100.434 142.415 101.53C144.104 102.462 145.16 103.968 146.21 105.503C146.434 105.829 146.655 106.153 146.884 106.471C147.343 107.108 147.389 107.741 147.211 108.283C147.014 108.883 146.512 109.39 145.884 109.656C145.304 109.901 144.631 109.935 144.035 109.683C143.531 109.471 143.069 109.056 142.777 108.352C142.284 107.166 141.464 105.858 140.379 105.163V105.163ZM177.906 107.8C177.4 108.065 177.004 108.144 176.442 107.976C176.132 107.882 175.825 107.703 175.585 107.462C175.347 107.224 175.175 106.927 175.108 106.598C174.944 105.786 174.501 105.025 173.869 104.53C173.329 104.106 172.647 103.881 171.891 104.008C171.075 104.145 170.297 104.669 169.762 105.288C169.583 105.494 169.442 105.73 169.301 105.963C169.038 106.399 168.781 106.805 168.417 107.126C168.279 107.248 168.072 107.332 167.87 107.332C167.788 107.332 167.705 107.319 167.626 107.294C166.814 106.477 166.658 105.857 166.684 105.243C166.712 104.598 166.965 103.945 167.375 103.336C168.336 101.908 170.161 100.737 171.393 100.471C173.08 100.108 174.755 100.544 176.098 101.488C177.48 102.46 178.504 103.968 178.823 105.668C178.9 106.077 178.867 106.519 178.712 106.902C178.56 107.277 178.295 107.597 177.906 107.8ZM144.099 89.9324C143.087 90.9208 141.888 91.0739 140.676 91.2101C140.003 91.2864 139.465 91.348 138.936 91.4676C137.482 91.7966 136.045 92.2921 134.734 93.0056C133.363 93.7515 131.869 94.6511 130.794 95.8036C130.539 96.0778 130.298 96.3656 130.056 96.654C129.837 96.917 129.625 97.1701 129.401 97.4142C129.145 97.6946 128.901 97.9885 128.659 98.2816C128.509 98.5289 128.48 98.5897 128.449 98.653C128.404 98.7482 128.351 98.8547 128.291 98.9689C128.208 99.1253 128.112 99.2966 128.01 99.4519C127.842 99.7357 127.751 99.8139 127.673 99.8488C127.543 99.9067 127.42 99.9352 127.301 99.9198C127.189 99.9053 127.084 99.8514 126.98 99.7633C126.46 99.3232 126.307 98.601 126.322 97.8344C126.346 96.6711 126.774 95.3831 127.169 94.5913C128.087 92.7515 129.359 90.839 130.89 89.4659C132.636 87.8985 134.547 86.712 136.741 85.8943C138.105 85.386 139.684 84.9195 141.169 84.9784C142.239 85.0208 143.26 85.3394 144.103 86.135C144.62 86.6234 144.869 87.3181 144.869 88.0123C144.869 88.7204 144.611 89.4326 144.099 89.9324ZM179.964 98.9836C179.9 99.0893 179.811 99.1622 179.712 99.2059C179.608 99.2518 179.492 99.265 179.381 99.2462C179.27 99.2275 179.164 99.1772 179.081 99.1002C179.001 99.0264 178.94 98.9286 178.912 98.8087C178.24 95.8505 176.935 93.6495 174.15 92.2302C172.78 91.532 171.204 91.0884 169.713 90.7347C169.28 90.6319 168.822 90.5653 168.36 90.4978C166.915 90.2863 165.459 90.044 164.517 88.8731C163.949 88.1677 163.711 87.2657 163.845 86.4407C163.972 85.6639 164.425 84.9517 165.248 84.5249C167.298 83.4628 169.845 84.505 171.915 85.3928C172.069 85.4586 172.219 85.5233 172.367 85.5857C174.391 86.442 176.237 87.5722 177.754 89.1886C178.959 90.471 180.074 92.3667 180.523 94.3169C180.897 95.9394 180.809 97.5958 179.964 98.9836Z" fill="#1A0B45"/>
</svg>
